<svg width="32" height="32" viewBox="0 0 32 32" xmlns="http://www.w3.org/2000/svg">
  <defs>
    <linearGradient id="techGradient" x1="0%" y1="0%" x2="100%" y2="100%">
      <stop offset="0%" style="stop-color:#00d4aa;stop-opacity:1" />
      <stop offset="50%" style="stop-color:#0ea5e9;stop-opacity:1" />
      <stop offset="100%" style="stop-color:#6366f1;stop-opacity:1" />
    </linearGradient>
  </defs>
  
  <!-- Dark background with rounded corners -->
  <rect width="32" height="32" rx="6" fill="#0f172a"/>
  
  <!-- Subtle tech grid background -->
  <defs>
    <pattern id="grid" width="4" height="4" patternUnits="userSpaceOnUse">
      <path d="M 4 0 L 0 0 0 4" fill="none" stroke="#1e293b" stroke-width="0.5" opacity="0.3"/>
    </pattern>
  </defs>
  <rect width="32" height="32" fill="url(#grid)"/>
  
  <!-- Letter G -->
  <g fill="url(#techGradient)">
    <!-- G outer shape -->
    <path d="M 6 10 L 6 22 L 14 22 L 14 18 L 10 18 L 10 16 L 14 16 L 14 10 L 6 10 Z M 8 12 L 12 12 L 12 14 L 12 16 L 12 20 L 8 20 L 8 12 Z" fill-rule="evenodd"/>
  </g>
  
  <!-- Letter J -->
  <g fill="url(#techGradient)">
    <!-- J shape -->
    <rect x="18" y="10" width="6" height="2"/>
    <rect x="20" y="10" width="2" height="10"/>
    <rect x="18" y="20" width="4" height="2"/>
    <rect x="18" y="20" width="2" height="2"/>
  </g>
  
  <!-- Tech accent elements -->
  <circle cx="4" cy="4" r="1" fill="#00d4aa" opacity="0.6"/>
  <circle cx="28" cy="4" r="1" fill="#0ea5e9" opacity="0.6"/>
  <circle cx="4" cy="28" r="1" fill="#6366f1" opacity="0.6"/>
  <circle cx="28" cy="28" r="1" fill="#00d4aa" opacity="0.6"/>
  
  <!-- Connection line between letters -->
  <rect x="15" y="15" width="2" height="2" fill="url(#techGradient)" opacity="0.7"/>
</svg>